<?xml version="1.0"?><svg width="793.7007874015749" height="1122.5196850393702" xmlns="http://www.w3.org/2000/svg">
 <title>yellow_star</title>
 <defs>
  <radialGradient r="0.5" cy="0.5" cx="0.5" spreadMethod="pad" id="svg_2">
   <stop offset="0.117188" stop-color="#ffff00"/>
   <stop offset="0.679688" stop-opacity="0.996094" stop-color="#ff7f00"/>
   <stop offset="1" stop-opacity="0.996094" stop-color="#bf005f"/>
   <stop offset="1" stop-opacity="0.996094" stop-color="#bf005f"/>
  </radialGradient>
 </defs>
 <g>
  <title>Layer 1</title>
  <g id="layer1">
   <g id="g4794">
    <path d="m578.399353,907.514771c-37.550659,21.511841 -147.361023,-122.451111 -190.582153,-127.119507c-43.221191,-4.668274 -179.733917,112.68866 -212.116394,83.623169c-32.382614,-29.065247 70.434448,-176.666077 61.259399,-219.026489c-9.174957,-42.360168 -164.281403,-136.176453 -146.744156,-175.651611c17.537048,-39.474976 190.8918,13.265442 228.442459,-8.246399c37.55072,-21.511597 78.202332,-196.850159 121.423462,-192.181763c43.221069,4.668427 47.543335,184.864685 79.925842,213.930023c32.382629,29.065277 212.61322,14.516388 221.788086,56.87674c9.174988,42.360229 -161.508545,100.987244 -179.045654,140.462341c-17.537048,39.475098 53.199829,205.821899 15.649109,227.333496z" id="path1061" stroke-dashoffset="0" stroke-miterlimit="4" stroke-width="0" stroke="#000084" fill-rule="evenodd" fill="url(#svg_2)"/>
   </g>
  </g>
 </g>
</svg>